<?xml version="1.0" encoding="UTF-8" standalone="no"?>
<!-- Created with Inkscape (http://www.inkscape.org/) -->

<svg
   id="svg2"
   version="1.1"
   inkscape:version="1.4 (86a8ad7, 2024-10-11)"
   xml:space="preserve"
   width="2324.488"
   height="2057.8831"
   viewBox="0 0 2324.4881 2057.8832"
   sodipodi:docname="verse.svg"
   inkscape:export-filename="verse.png"
   inkscape:export-xdpi="90"
   inkscape:export-ydpi="90"
   xmlns:inkscape="http://www.inkscape.org/namespaces/inkscape"
   xmlns:sodipodi="http://sodipodi.sourceforge.net/DTD/sodipodi-0.dtd"
   xmlns:xlink="http://www.w3.org/1999/xlink"
   xmlns="http://www.w3.org/2000/svg"
   xmlns:svg="http://www.w3.org/2000/svg"
   xmlns:rdf="http://www.w3.org/1999/02/22-rdf-syntax-ns#"
   xmlns:cc="http://creativecommons.org/ns#"
   xmlns:dc="http://purl.org/dc/elements/1.1/"><metadata
     id="metadata8"><rdf:RDF><cc:Work
         rdf:about=""><dc:format>image/svg+xml</dc:format><dc:type
           rdf:resource="http://purl.org/dc/dcmitype/StillImage" /></cc:Work></rdf:RDF></metadata><defs
     id="defs6"><linearGradient
       inkscape:collect="always"
       id="linearGradient4316"><stop
         style="stop-color:#ff9a20;stop-opacity:1"
         offset="0"
         id="stop4318" /><stop
         id="stop4324"
         offset="0.50968331"
         style="stop-color:#ff2020;stop-opacity:1" /><stop
         style="stop-color:#ff9920;stop-opacity:1"
         offset="1"
         id="stop4320" /></linearGradient><clipPath
       clipPathUnits="userSpaceOnUse"
       id="clipPath16"><path
         d="M 0,2400 H 2400 V 0 H 0 Z"
         id="path18"
         inkscape:connector-curvature="0" /></clipPath><clipPath
       clipPathUnits="userSpaceOnUse"
       id="clipPath34"><path
         d="M 0,2400 H 2400 V 0 H 0 Z"
         id="path36"
         inkscape:connector-curvature="0" /></clipPath><clipPath
       clipPathUnits="userSpaceOnUse"
       id="clipPath56"><path
         d="M 0,2400 H 2400 V 0 H 0 Z"
         id="path58"
         inkscape:connector-curvature="0" /></clipPath><clipPath
       clipPathUnits="userSpaceOnUse"
       id="clipPath74"><path
         d="M 0,2400 H 2400 V 0 H 0 Z"
         id="path76"
         inkscape:connector-curvature="0" /></clipPath><linearGradient
       inkscape:collect="always"
       xlink:href="#linearGradient4316"
       id="linearGradient4322"
       x1="2233.6833"
       y1="-2101.1331"
       x2="453.97421"
       y2="-2097.6116"
       gradientUnits="userSpaceOnUse" /><clipPath
       clipPathUnits="userSpaceOnUse"
       id="clipPath4209"><g
         style="fill:#ff0000;fill-opacity:1"
         clip-path="url(#clipPath16)"
         id="g4211"
         transform="matrix(2.0635153,0,0,-2.151038,-169.69721,2054.9341)"><g
           style="fill:#ff0000;fill-opacity:1"
           transform="translate(669.7393,1603.146)"
           id="g4213"><path
             inkscape:connector-curvature="0"
             id="path4215"
             style="fill:#ff0000;fill-opacity:1;fill-rule:nonzero;stroke:none"
             d="M 0,0 -19.792,9.871 3.162,14.913 24.615,4.216 Z M 493.46,260.286 C 433.151,169.83 293.361,115.006 183.714,97.188 157.418,27.065 116.201,-33.374 48.226,-54.819 l -5.551,40.711 22.673,7.817 18.465,-3.62 -11.752,30.224 H 36.8 l -7.558,15.952 h -79.756 l -20.045,-89.081 c -64.423,23.033 -103.965,81.971 -129.483,150.007 -109.646,17.815 -249.437,72.639 -309.746,163.099 -8.857,-26.08 -11.448,-51.575 -9.167,-76.248 41.26,-45.857 98.436,-82.05 151.715,-88.222 -41.881,-3.104 -88.583,2.159 -132.428,19.461 9.607,-20.508 22.254,-40.127 37.06,-58.685 41.245,-13.781 87.673,-19.858 151.563,-8.749 -35.551,-20.146 -75.05,-30.057 -113.213,-32.836 16.769,-15.938 34.828,-30.78 53.452,-44.357 27.841,-1.834 56.989,3.364 84.859,23.055 -9.817,-17.872 -24.788,-36.914 -46.407,-48.911 12.647,-7.832 25.3,-15.094 37.745,-21.67 5.89,-3.11 11.708,-6.243 17.526,-9.376 28.151,5.572 42.61,19.8 52.448,33.861 2.909,-17.432 -6.496,-37.015 -23.416,-49.77 102.27,-57.105 189.778,-117.024 239.887,-170.707 50.11,53.683 137.618,113.598 239.888,170.707 -16.92,12.755 -26.326,32.338 -23.417,49.766 9.839,-14.057 24.297,-28.288 52.449,-33.861 5.818,3.137 11.636,6.27 17.525,9.38 12.446,6.573 25.099,13.834 37.745,21.67 -21.618,11.997 -36.589,31.035 -46.406,48.911 27.87,-19.695 57.018,-24.892 84.859,-23.055 18.623,13.577 36.683,28.415 53.452,44.357 -38.163,2.779 -77.662,12.69 -113.213,32.836 63.889,-11.109 110.318,-5.035 151.563,8.749 14.805,18.558 27.451,38.177 37.059,58.681 -43.844,-17.302 -90.546,-22.565 -132.427,-19.461 53.278,6.176 110.455,42.365 151.715,88.226 2.279,24.669 -0.311,50.165 -9.168,76.244" /></g></g></clipPath><linearGradient
       x1="0"
       y1="128"
       x2="128"
       y2="0"
       id="gradient"
       gradientUnits="userSpaceOnUse"><stop
         id="start"
         style="stop-color:#dbdbdb;stop-opacity:1"
         offset="0" /><stop
         id="stop"
         style="stop-color:#757575;stop-opacity:1"
         offset="1" /></linearGradient></defs><sodipodi:namedview
     pagecolor="#ffffff"
     bordercolor="#666666"
     borderopacity="1"
     objecttolerance="10"
     gridtolerance="10"
     guidetolerance="10"
     inkscape:pageopacity="0"
     inkscape:pageshadow="2"
     inkscape:window-width="3840"
     inkscape:window-height="2126"
     id="namedview4"
     showgrid="false"
     inkscape:zoom="0.62933332"
     inkscape:cx="979.60807"
     inkscape:cy="753.97247"
     inkscape:window-x="-11"
     inkscape:window-y="-11"
     inkscape:window-maximized="1"
     inkscape:current-layer="layer1"
     fit-margin-top="100"
     fit-margin-left="100"
     fit-margin-right="100"
     fit-margin-bottom="100"
     showguides="false"
     inkscape:showpageshadow="2"
     inkscape:pagecheckerboard="0"
     inkscape:deskcolor="#d1d1d1" /><g
     id="g10"
     inkscape:groupmode="layer"
     inkscape:label="eagle"
     transform="matrix(1.25,0,0,-1.25,1272.7211,2985.6544)"
     style="display:inline" /><g
     inkscape:groupmode="layer"
     id="layer1"
     inkscape:label="title"
     style="display:inline"
     transform="translate(1297.5097,178.27554)"><text
   transform="scale(0.9794445,1.0209869)"
   style="font-variant:normal;font-weight:normal;font-stretch:normal;font-size:21.2545px;line-height:0%;font-family:Times;-inkscape-font-specification:Times-Roman;writing-mode:lr-tb;display:inline;fill:#e94781;fill-opacity:1;fill-rule:nonzero;stroke:none;stroke-width:1.77122"
   id="text24"
   x="-1221.8687"
   y="1742.2537"
   inkscape:export-xdpi="90"
   inkscape:export-ydpi="90"><tspan
     x="-1221.8687"
     sodipodi:role="line"
     id="tspan28"
     y="1742.2537"
     style="font-style:normal;font-variant:normal;font-weight:normal;font-stretch:normal;font-size:626.913px;line-height:1.25;font-family:Birdman;-inkscape-font-specification:Birdman;fill:#e94781;fill-opacity:1;stroke-width:1.77122">VERSE</tspan></text>


<path
   id="path0"
   d="m -412.66777,-72.113237 c -82.23638,34.65105 -88.29351,152.048413 -9.80235,189.996767 l 12.78612,6.18117 v 36.09815 36.10159 l -59.89253,0.0448 c -92.06974,0.0724 -123.10649,9.88503 -164.931,52.154 -41.38693,41.82451 -49.64227,68.29601 -49.6974,159.36656 l -0.0413,62.17688 -28.05987,1.71584 c -54.47971,3.33176 -87.00493,24.67987 -104.09782,68.32703 -7.0977,18.12315 -10.9566,147.3729 -5.5576,186.0896 7.9763,57.18095 45.27,89.36849 105.92053,91.4151 l 31.46399,1.06464 0.89238,87.87661 c 1.11289,109.8277 6.63597,128.5745 50.88953,172.7557 42.86504,42.7892 64.88845,48.271 194.17266,48.3226 l 98.92277,0.041 v 74.1567 c 0,81.4991 0.79246,86.1367 16.06276,94.0337 21.15171,10.9359 19.51856,11.7284 169.62717,-82.0538 l 137.873745,-86.1366 H 128.37718 c 173.0554,0 185.45564,-2.0776 227.91756,-38.2033 52.47789,-44.6429 61.10534,-70.0946 62.45252,-184.26358 l 1.0233,-86.53287 31.43298,-1.0681 c 47.27524,-1.60558 77.18188,-19.64604 95.09141,-57.36011 l 7.66961,-16.1489 V 644.9498 l 0.003,-99.0916 -7.2148,-15.25307 C 528.13731,491.2583 490.31987,471.07131 434.85821,470.87837 l -15.47703,-0.0551 -0.0482,-59.89253 c -0.0689,-90.0059 -9.89193,-122.23822 -49.39419,-162.12638 -41.52475,-41.93131 -67.50013,-50.5243 -157.15114,-51.97828 l -67.96871,-1.09911 v -36.02582 -36.02579 l 12.78612,-6.4947 c 96.57982,-49.070334 59.87183,-194.131337 -49.12549,-194.131337 -108.89393456,0 -145.791425,146.721723 -48.953165,194.668827 l 12.61385,6.24318 v 36.14984 36.15327 H -132.43427 -337.00879 v -36.08437 -36.08092 l 14.13674,-7.97625 c 72.77513,-41.073394 69.58118,-149.240357 -5.47829,-185.372957 -22.36796,-10.76708 -62.33536,-12.12459 -84.31743,-2.86318 m 55.9647,70.6079301 c 22.01997,14.4261729 19.33939,42.9167229 -5.30258,56.4091629 -12.97217,7.10111 -29.52764,2.07418 -38.84418,-11.79727 -19.31528,-28.75241 15.17039,-63.599853 44.14676,-44.6118929 m 479.34006,-1.43676 C 147.60284,12.280006 147.01366,42.865406 121.52066,54.962436 94.621915,67.727886 65.693785,37.886706 79.389515,11.501326 88.609585,-6.2669369 107.07382,-12.430877 122.63699,-2.9420669 M 275.67425,272.91915 c 28.68349,8.51719 53.92154,32.42527 66.12193,62.63855 l 6.25008,15.48048 0.80624,296.09643 c 0.96128,354.39719 1.76408,343.69899 -28.11156,375.63849 -32.41495,34.6545 -33.22119,34.7854 -212.48877,34.8233 l -148.275605,0.031 -38.80284,23.9185 c -21.341205,13.1548 -72.719995,45.1597 -114.172385,71.1247 l -75.36957,47.2063 -1.34373,-59.6858 c -2.0087,-89.0411 12.30376,-80.8271 -143.88609,-82.5602 l -121.25627,-1.3472 -18.03702,-8.5447 c -31.57424,-14.9603 -52.09544,-41.2354 -58.56258,-74.99065 -5.70569,-29.76883 -2.65645,-621.3415 3.28009,-636.51189 10.33639,-26.42328 33.34177,-49.62503 60.11304,-60.62985 l 15.90082,-6.53949 397.22085,-0.062 c 342.74114,-0.0551 399.05727,0.48236 410.61337,3.91405 m -614.771,135.74098 c -41.94854,15.6114 -70.60103,54.42802 -70.58381,95.62545 0,48.94629 65.14687,52.71563 71.58989,4.14145 4.09666,-30.87137 33.71044,-43.95725 54.8277,-24.22851 7.71784,7.21136 8.93753,10.24681 12.15215,30.26152 5.93654,36.99741 63.338,37.44188 70.25994,0.54094 12.53116,-66.79724 -71.27979,-131.26535 -138.24587,-106.34085 M 8.8849454,407.29574 c -42.8994904,13.5648 -74.0499504,54.95518 -74.0154904,98.33704 0.0413,48.07458 65.24334044,50.62078 71.5864404,2.79427 6.2569696,-47.15119 60.0062296,-44.35003 66.6421996,3.46959 5.64022,40.63927 64.412975,41.70047 70.401195,1.27137 C 153.27407,447.17356 75.702865,386.16126 8.8849454,407.29574 M -684.24627,645.78743 v 102.28899 h -19.55646 c -45.04602,0 -47.72659,-5.79183 -47.73349,-103.09522 0,-96.76935 2.13619,-101.4483 46.42765,-101.46897 l 20.8623,-0.0103 v 102.2855 M 466.02245,547.17132 c 18.63652,7.78675 19.21881,10.53278 20.05606,94.57803 0.97851,98.04417 -2.67713,106.32707 -46.91002,106.32707 H 419.38118 V 645.78743 543.50189 h 18.92594 c 10.4122,0 22.88479,1.65038 27.71533,3.66943 m -856.70126,221.97412 c -28.115,15.07736 -24.41457,50.67936 6.8737,66.11849 138.67311,68.43039 350.483105,70.00497 494.0591,3.66597 30.46825,-14.07817 40.47044,-31.40197 30.1306,-52.20569 -11.99712,-24.14582 -28.64561,-27.2812 -62.910755,-11.8524 -118.44478,53.33236 -285.573975,54.5555 -413.142345,3.02167 -37.52801,-15.16005 -41.79005,-15.83881 -55.0103,-8.74804"
   stroke="none"
   fill="#000000"
   fill-rule="evenodd"
   style="fill:#4a47e9;fill-opacity:1;stroke-width:3.44547" /></g></svg>
